<svg height="958" width="720" xmlns="http://www.w3.org/2000/svg">
<rect height="958" fill="#555" width="720"></rect>
<text fill="#7f7" font-family="Courier New" font-size="12" xml:space="preserve">
<tspan x="10" y="26">4 megabytes installed</tspan>
<tspan x="10" y="42"></tspan>
<tspan x="10" y="58">node_modules</tspan>
<tspan x="10" y="74">└─┬ metalsmith@2.3.0 </tspan>
<tspan x="10" y="90">  ├── absolute@0.0.1 </tspan>
<tspan x="10" y="106">  ├─┬ chalk@1.1.3 </tspan>
<tspan x="10" y="122">  │ ├── ansi-styles@2.2.1 </tspan>
<tspan x="10" y="138">  │ ├── escape-string-regexp@1.0.5 </tspan>
<tspan x="10" y="154">  │ ├─┬ has-ansi@2.0.0 </tspan>
<tspan x="10" y="170">  │ │ └── ansi-regex@2.1.1 </tspan>
<tspan x="10" y="186">  │ ├── strip-ansi@3.0.1 </tspan>
<tspan x="10" y="202">  │ └── supports-color@2.0.0 </tspan>
<tspan x="10" y="218">  ├── clone@1.0.2 </tspan>
<tspan x="10" y="234">  ├─┬ co-fs-extra@1.2.1 </tspan>
<tspan x="10" y="250">  │ ├─┬ co-from-stream@0.0.0 </tspan>
<tspan x="10" y="266">  │ │ └── co-read@0.0.1 </tspan>
<tspan x="10" y="282">  │ ├─┬ fs-extra@0.26.7 </tspan>
<tspan x="10" y="298">  │ │ ├── graceful-fs@4.1.11 </tspan>
<tspan x="10" y="314">  │ │ ├── jsonfile@2.4.0 </tspan>
<tspan x="10" y="330">  │ │ ├── klaw@1.3.1 </tspan>
<tspan x="10" y="346">  │ │ └── path-is-absolute@1.0.1 </tspan>
<tspan x="10" y="362">  │ └─┬ thunkify-wrap@1.0.4 </tspan>
<tspan x="10" y="378">  │   └── enable@1.3.2 </tspan>
<tspan x="10" y="394">  ├─┬ commander@2.9.0 </tspan>
<tspan x="10" y="410">  │ └── graceful-readlink@1.0.1 </tspan>
<tspan x="10" y="426">  ├─┬ gray-matter@2.1.1 </tspan>
<tspan x="10" y="442">  │ ├─┬ ansi-red@0.1.1 </tspan>
<tspan x="10" y="458">  │ │ └── ansi-wrap@0.1.0 </tspan>
<tspan x="10" y="474">  │ ├── coffee-script@1.12.5 </tspan>
<tspan x="10" y="490">  │ ├─┬ extend-shallow@2.0.1 </tspan>
<tspan x="10" y="506">  │ │ └── is-extendable@0.1.1 </tspan>
<tspan x="10" y="522">  │ ├─┬ js-yaml@3.8.3 </tspan>
<tspan x="10" y="538">  │ │ ├─┬ argparse@1.0.9 </tspan>
<tspan x="10" y="554">  │ │ │ └── sprintf-js@1.0.3 </tspan>
<tspan x="10" y="570">  │ │ └── esprima@3.1.3 </tspan>
<tspan x="10" y="586">  │ └── toml@2.3.2 </tspan>
<tspan x="10" y="602">  ├── has-generators@1.0.1 </tspan>
<tspan x="10" y="618">  ├── is@3.2.1 </tspan>
<tspan x="10" y="634">  ├── is-utf8@0.2.1 </tspan>
<tspan x="10" y="650">  ├─┬ recursive-readdir@2.1.1 </tspan>
<tspan x="10" y="666">  │ └─┬ minimatch@3.0.3 </tspan>
<tspan x="10" y="682">  │   └─┬ brace-expansion@1.1.7 </tspan>
<tspan x="10" y="698">  │     ├── balanced-match@0.4.2 </tspan>
<tspan x="10" y="714">  │     └── concat-map@0.0.1 </tspan>
<tspan x="10" y="730">  ├─┬ rimraf@2.6.1 </tspan>
<tspan x="10" y="746">  │ └─┬ glob@7.1.1 </tspan>
<tspan x="10" y="762">  │   ├── fs.realpath@1.0.0 </tspan>
<tspan x="10" y="778">  │   ├─┬ inflight@1.0.6 </tspan>
<tspan x="10" y="794">  │   │ └── wrappy@1.0.2 </tspan>
<tspan x="10" y="810">  │   ├── inherits@2.0.3 </tspan>
<tspan x="10" y="826">  │   └── once@1.4.0 </tspan>
<tspan x="10" y="842">  ├── stat-mode@0.2.2 </tspan>
<tspan x="10" y="858">  ├── thunkify@2.1.2 </tspan>
<tspan x="10" y="874">  ├─┬ unyield@0.0.1 </tspan>
<tspan x="10" y="890">  │ └── co@3.1.0 </tspan>
<tspan x="10" y="906">  ├─┬ ware@1.3.0 </tspan>
<tspan x="10" y="922">  │ └── wrap-fn@0.1.5 </tspan>
<tspan x="10" y="938">  └── win-fork@1.1.1</tspan>
</text>
</svg>
